# xmcd
#
# Track frame offsets: 
#        150
#        24047
#        35820
#        55718
#        68470
#        87777
#        107708
#        112498
#        135328
#        151506
#        168684
#
# Disc length: 2629 seconds
#
# Revision: 3
# Processed by: cddbd v1.5.2PL0 Copyright (c) Steve Scherf et al.
# Submitted via: ExactAudioCopyFreeDBPlugin 1.0
#
DISCID=820a430b
DTITLE=Songs 4 Worship - Ah, Lord God CD-1
DYEAR=2002
DGENRE=Worship and Praise
TTITLE0=Dennis Jernigan - Nobody Fills My Heart Like Jesus
TTITLE1=Ron Kenoly - Hallowed Be Thy Name
TTITLE2=Alvin Slaughter - Jesus Is Mine
TTITLE3=Lindell Cooley - Look What The Lord Has Done
TTITLE4=Robin Mark - How Great Are You Lord
TTITLE5=Paul Baloche - Lead Me, O Lead Me
TTITLE6=Dave Bilbrough - As We Seek Your Face
TTITLE7=Tommy Coomes and Marsha Skidmore - White As Snow|Nothing But T
TTITLE7=he Blood Of Jesus
TTITLE8=Selah - The Blood Will Never Lose Its Power
TTITLE9=The Maranatha Promise B - Holy, Holy, Holy Lord Gold Almighty|
TTITLE9=Holy, Holy, Holy Is The Lord of Hosts
TTITLE10=Tommy Walker and The Maranatha Promise Band - Doxology
EXTD=
EXTT0=
EXTT1=
EXTT2=
EXTT3=
EXTT4=
EXTT5=
EXTT6=
EXTT7=
EXTT8=
EXTT9=
EXTT10=
PLAYORDER=
